<?xml version="1.0" standalone="no"?>
<svg xmlns:xlink="http://www.w3.org/1999/xlink" id="wave" style="transform:rotate(0deg); transition: 0.3s" viewBox="0 0 1440 440" version="1.1" xmlns="http://www.w3.org/2000/svg"><defs><linearGradient id="sw-gradient-0" x1="0" x2="0" y1="1" y2="0"><stop stop-color="rgba(32.785, 66.787, 150.588, 1)" offset="0%"/><stop stop-color="rgba(0, 211.81, 255, 1)" offset="100%"/></linearGradient></defs><path style="transform:translate(0, 0px); opacity:1" fill="url(#sw-gradient-0)" d="M0,88L40,117.3C80,147,160,205,240,242C320,279,400,293,480,293.3C560,293,640,279,720,242C800,205,880,147,960,124.7C1040,103,1120,117,1200,132C1280,147,1360,161,1440,176C1520,191,1600,205,1680,220C1760,235,1840,249,1920,271.3C2000,293,2080,323,2160,337.3C2240,352,2320,352,2400,359.3C2480,367,2560,381,2640,322.7C2720,264,2800,132,2880,73.3C2960,15,3040,29,3120,80.7C3200,132,3280,220,3360,271.3C3440,323,3520,337,3600,337.3C3680,337,3760,323,3840,322.7C3920,323,4000,337,4080,308C4160,279,4240,205,4320,176C4400,147,4480,161,4560,176C4640,191,4720,205,4800,190.7C4880,176,4960,132,5040,161.3C5120,191,5200,293,5280,322.7C5360,352,5440,308,5520,278.7C5600,249,5680,235,5720,227.3L5760,220L5760,440L5720,440C5680,440,5600,440,5520,440C5440,440,5360,440,5280,440C5200,440,5120,440,5040,440C4960,440,4880,440,4800,440C4720,440,4640,440,4560,440C4480,440,4400,440,4320,440C4240,440,4160,440,4080,440C4000,440,3920,440,3840,440C3760,440,3680,440,3600,440C3520,440,3440,440,3360,440C3280,440,3200,440,3120,440C3040,440,2960,440,2880,440C2800,440,2720,440,2640,440C2560,440,2480,440,2400,440C2320,440,2240,440,2160,440C2080,440,2000,440,1920,440C1840,440,1760,440,1680,440C1600,440,1520,440,1440,440C1360,440,1280,440,1200,440C1120,440,1040,440,960,440C880,440,800,440,720,440C640,440,560,440,480,440C400,440,320,440,240,440C160,440,80,440,40,440L0,440Z"/><defs><linearGradient id="sw-gradient-1" x1="0" x2="0" y1="1" y2="0"><stop stop-color="rgba(31.936, 81.956, 205.231, 1)" offset="0%"/><stop stop-color="rgba(0, 255, 246.362, 1)" offset="100%"/></linearGradient></defs><path style="transform:translate(0, 50px); opacity:0.9" fill="url(#sw-gradient-1)" d="M0,308L40,322.7C80,337,160,367,240,366.7C320,367,400,337,480,315.3C560,293,640,279,720,293.3C800,308,880,352,960,352C1040,352,1120,308,1200,278.7C1280,249,1360,235,1440,242C1520,249,1600,279,1680,264C1760,249,1840,191,1920,146.7C2000,103,2080,73,2160,102.7C2240,132,2320,220,2400,271.3C2480,323,2560,337,2640,352C2720,367,2800,381,2880,344.7C2960,308,3040,220,3120,168.7C3200,117,3280,103,3360,132C3440,161,3520,235,3600,242C3680,249,3760,191,3840,168.7C3920,147,4000,161,4080,146.7C4160,132,4240,88,4320,102.7C4400,117,4480,191,4560,220C4640,249,4720,235,4800,227.3C4880,220,4960,220,5040,190.7C5120,161,5200,103,5280,110C5360,117,5440,191,5520,220C5600,249,5680,235,5720,227.3L5760,220L5760,440L5720,440C5680,440,5600,440,5520,440C5440,440,5360,440,5280,440C5200,440,5120,440,5040,440C4960,440,4880,440,4800,440C4720,440,4640,440,4560,440C4480,440,4400,440,4320,440C4240,440,4160,440,4080,440C4000,440,3920,440,3840,440C3760,440,3680,440,3600,440C3520,440,3440,440,3360,440C3280,440,3200,440,3120,440C3040,440,2960,440,2880,440C2800,440,2720,440,2640,440C2560,440,2480,440,2400,440C2320,440,2240,440,2160,440C2080,440,2000,440,1920,440C1840,440,1760,440,1680,440C1600,440,1520,440,1440,440C1360,440,1280,440,1200,440C1120,440,1040,440,960,440C880,440,800,440,720,440C640,440,560,440,480,440C400,440,320,440,240,440C160,440,80,440,40,440L0,440Z"/></svg>